<svg width="35" height="35" viewBox="0 0 35 35" fill="none" xmlns="http://www.w3.org/2000/svg">
<path fill-rule="evenodd" clip-rule="evenodd" d="M33 17.5C33 26.0603 26.0603 33 17.5 33C8.9396 33 2 26.0603 2 17.5C2 8.93958 8.9396 2 17.5 2C26.0603 2 33 8.93958 33 17.5ZM18.0554 13.4428C16.5478 14.0698 13.5347 15.3677 9.01618 17.3363C8.28244 17.6282 7.89807 17.9137 7.86307 18.1927C7.80394 18.6645 8.39466 18.8502 9.19906 19.1032C9.30848 19.1376 9.42185 19.1732 9.53806 19.2109C10.3295 19.4682 11.394 19.7692 11.9475 19.7811C12.4495 19.792 13.0098 19.5851 13.6284 19.1602C17.8502 16.3104 20.0296 14.87 20.1663 14.8388C20.2629 14.817 20.3966 14.7894 20.4873 14.87C20.578 14.9506 20.569 15.1031 20.5594 15.144C20.501 15.3936 18.1822 17.5493 16.9822 18.6648C16.6081 19.0126 16.3428 19.2593 16.2885 19.3157C16.167 19.4418 16.0432 19.5612 15.9241 19.6759C15.189 20.3847 14.6375 20.9162 15.9547 21.7842C16.5875 22.2013 17.0941 22.5462 17.5994 22.8903C18.1512 23.2662 18.7016 23.6409 19.4138 24.1078C19.5951 24.2267 19.7684 24.3502 19.9372 24.4705C20.5794 24.9284 21.1563 25.3397 21.8691 25.274C22.2833 25.236 22.7111 24.8465 22.9284 23.685C23.4419 20.9399 24.4513 14.9921 24.6846 12.5413C24.705 12.3265 24.6793 12.0517 24.6585 11.9311C24.6379 11.8104 24.5948 11.6386 24.438 11.5113C24.2523 11.3606 23.9655 11.3288 23.8373 11.331C23.2544 11.3414 22.3599 11.6524 18.0554 13.4428Z" stroke="#DC601A" stroke-width="3" stroke-linejoin="round"/>
</svg>
