<svg width="33" height="32" viewBox="0 0 33 32" fill="none" xmlns="http://www.w3.org/2000/svg">
<g clip-path="url(#clip0_627_551)">
<path fill-rule="evenodd" clip-rule="evenodd" d="M32.8416 16C32.8416 24.8366 25.6781 32 16.8416 32C8.005 32 0.841553 24.8366 0.841553 16C0.841553 7.16344 8.005 0 16.8416 0C25.6781 0 32.8416 7.16344 32.8416 16ZM17.4017 11.8037C15.843 12.4565 12.7389 13.8021 8.07611 15.827C7.33007 16.1334 6.9304 16.4265 6.89043 16.7196C6.83143 17.2152 7.45176 17.4077 8.28856 17.6674C8.39654 17.7009 8.50813 17.7355 8.62232 17.7721C9.4483 18.0385 10.5407 18.3449 11.1136 18.3583C11.6331 18.3716 12.206 18.1584 12.8455 17.7188C17.2018 14.7746 19.44 13.2825 19.5865 13.2558C19.6931 13.2292 19.8263 13.2026 19.9196 13.2825C20.0128 13.3624 20.0128 13.5223 19.9995 13.5623C19.9359 13.8271 17.337 16.2398 16.1543 17.3378C15.8497 17.6206 15.639 17.8162 15.5898 17.8653C15.4649 17.994 15.3377 18.1157 15.2153 18.2328C14.4506 18.9648 13.8768 19.5141 15.2435 20.4099C15.8648 20.8201 16.3659 21.162 16.8594 21.4987C17.4558 21.9056 18.0411 22.3049 18.8138 22.8079C18.9959 22.9274 19.1702 23.0514 19.3402 23.1724C20.0039 23.6445 20.6027 24.0705 21.3451 24.0069C21.7714 23.9669 22.211 23.5672 22.4375 22.3682C22.9704 19.5439 24.0095 13.4024 24.2493 10.8712C24.2759 10.658 24.2493 10.3782 24.2227 10.245C24.196 10.1118 24.156 9.93861 23.9962 9.80539C23.7963 9.64552 23.5033 9.61887 23.37 9.61887C22.7705 9.6322 21.838 9.95193 17.4017 11.8037Z" fill="#DC601A"/>
</g>
<defs>
<clipPath id="clip0_627_551">
<rect width="32" height="32" fill="white" transform="translate(0.841553)"/>
</clipPath>
</defs>
</svg>
