<svg width="32" height="33" viewBox="0 0 32 33" fill="none" xmlns="http://www.w3.org/2000/svg">
<mask id="mask0_627_546" style="mask-type:luminance" maskUnits="userSpaceOnUse" x="0" y="0" width="32" height="33">
<path d="M31.6832 0.885742H0V32.9254H31.6832V0.885742Z" fill="white"/>
</mask>
<g mask="url(#mask0_627_546)">
<path fill-rule="evenodd" clip-rule="evenodd" d="M2.22715 3.13795C0 5.39017 0 9.01505 0 16.2648V17.5464C0 24.7961 0 28.421 2.22715 30.6732C4.4543 32.9254 8.03884 32.9254 15.2079 32.9254H16.4752C23.6443 32.9254 27.2289 32.9254 29.456 30.6732C31.6832 28.421 31.6832 24.7961 31.6832 17.5464V16.2648C31.6832 9.01505 31.6832 5.39017 29.456 3.13795C27.2289 0.885742 23.6443 0.885742 16.4752 0.885742H15.2079C8.03884 0.885742 4.4543 0.885742 2.22715 3.13795ZM5.3466 10.6312C5.51819 18.9615 9.63697 23.9677 16.8581 23.9677H17.2674V19.2018C19.9209 19.4688 21.9274 21.4313 22.7326 23.9677H26.4819C25.4522 20.1764 22.7458 18.0804 21.056 17.2794C22.7458 16.2916 25.1221 13.8886 25.6897 10.6312H22.2837C21.5444 13.2745 19.3532 15.6774 17.2674 15.9044V10.6312H13.8614V19.8693C11.7492 19.3353 9.08255 16.7455 8.96374 10.6312H5.3466Z" fill="#DC601A"/>
</g>
</svg>
